<svg xmlns="http://www.w3.org/2000/svg" viewBox="0 0 266 400"><defs><style>.a{fill:#1a1a1a}.f,.h{fill:none;stroke-miterlimit:10}.d{fill:#fff}.f,.h{stroke:#fff}.h{stroke-linecap:round}.f{stroke-width:2.5px}.h{stroke-width:3px}</style></defs><rect class="a" x="43" y="17" width="84" height="42" rx="12" ry="12"/><rect class="a" x="139" y="17" width="84" height="42" rx="12" ry="12"/><rect class="a" x="43" y="244" width="84" height="42" rx="12" ry="12"/><rect class="a" x="139" y="244" width="84" height="42" rx="12" ry="12"/><path d="M190.63 123H171a9.45 9.45 0 0 1-9.45-9.45V93.88A16.92 16.92 0 0 0 144.63 77h-23.25a16.92 16.92 0 0 0-16.88 16.88v19.67a9.45 9.45 0 0 1-9.45 9.45H75.38a16.92 16.92 0 0 0-16.88 16.88v23.25A16.92 16.92 0 0 0 75.38 180h19.67a9.45 9.45 0 0 1 9.45 9.45v19.68A16.92 16.92 0 0 0 121.38 226h23.25a16.92 16.92 0 0 0 16.87-16.87v-19.68A9.45 9.45 0 0 1 171 180h19.68a16.92 16.92 0 0 0 16.87-16.87v-23.25A16.92 16.92 0 0 0 190.63 123z" fill="#662d91"/><circle cx="133" cy="152" r="25" stroke-miterlimit="10" stroke="#000" opacity=".25" fill="none"/><rect class="a" x="43" y="293" width="55" height="42" rx="12" ry="12"/><rect class="a" x="168" y="293" width="55" height="42" rx="12" ry="12"/><rect class="a" x="105.5" y="293" width="55" height="42" rx="12" ry="12"/><rect class="a" x="43" y="342" width="55" height="42" rx="12" ry="12"/><rect class="a" x="168" y="342" width="55" height="42" rx="12" ry="12"/><rect class="a" x="105.5" y="342" width="55" height="42" rx="12" ry="12"/><path class="d" d="M132.75 151.63a7 7 0 0 1-1.58 4.91 6.87 6.87 0 0 1-9.07 0 7 7 0 0 1-1.58-4.92 6.92 6.92 0 0 1 1.58-4.9 5.94 5.94 0 0 1 4.55-1.7 5.82 5.82 0 0 1 4.53 1.71 7 7 0 0 1 1.57 4.9zm-9.37 0a5.43 5.43 0 0 0 .81 3.25 2.89 2.89 0 0 0 2.45 1.09q3.26 0 3.26-4.34t-3.25-4.34a2.88 2.88 0 0 0-2.45 1.1 5.34 5.34 0 0 0-.82 3.24zM144.53 158.08h-3.1l-3.36-5.42-1.15.83v4.59h-2.73v-12.85h2.73v5.88l1.07-1.52 3.48-4.36h3l-4.47 5.68z"/><path d="M190 37.7l-8.68-7.8a.4.4 0 0 0-.54 0l-8.68 7.8" stroke-width="2.5" stroke-linecap="round" stroke="#fff" stroke-miterlimit="10" fill="none"/><path class="f" d="M182.91 46.2h4.5a.41.41 0 0 0 .41-.41v-9.93M174.18 35.86v9.93a.41.41 0 0 0 .41.41h4.5"/><path stroke-width="2.5" stroke="#fff" fill="#fff" stroke-miterlimit="10" d="M179.85 40.36h2.3v5.84h-2.3z"/><path class="d" d="M74.43 265H70.6a1.11 1.11 0 0 0-.79 1.9l5.46 5.46a1.11 1.11 0 0 0 1.58 0l5.46-5.46a1.11 1.11 0 0 0-.79-1.9h-3.83a9.79 9.79 0 1 1 10.74 9.73 1.11 1.11 0 0 0-1 1.11v1a1.13 1.13 0 0 0 1.3 1.16 13 13 0 1 0-14.3-13zM191.6 268.38a.67.67 0 0 1 .42.74 7.76 7.76 0 0 1-2 3.33.69.69 0 0 1-.84 0l-6.75-4.89.89 8.27a.63.63 0 0 1-.42.72 7.52 7.52 0 0 1-3.92 0 .63.63 0 0 1-.42-.72l.89-8.27-6.71 4.89a.72.72 0 0 1-.86 0 7.5 7.5 0 0 1-2-3.33.69.69 0 0 1 .43-.74l7.64-3.38-7.64-3.35a.75.75 0 0 1-.43-.77 4.45 4.45 0 0 1 .75-1.78 4.53 4.53 0 0 1 1.2-1.52.72.72 0 0 1 .86 0l6.71 4.86-.89-8.23a.66.66 0 0 1 .42-.76 7.52 7.52 0 0 1 3.92 0 .66.66 0 0 1 .42.76l-.89 8.23 6.75-4.86a.69.69 0 0 1 .84 0 4.81 4.81 0 0 1 1.18 1.55 4.71 4.71 0 0 1 .77 1.75.73.73 0 0 1-.42.77L184 265zM68.82 355.8l-3.67 3.46h-4.21a1 1 0 0 0-1 .94v5.6a1 1 0 0 0 1 .94h4.21l3.67 3.46a1 1 0 0 0 1.69-.66v-13.08a1 1 0 0 0-1.69-.66zM79 363l1.88-1.78a.61.61 0 0 0 0-.89l-.94-.89a.7.7 0 0 0-.94 0l-1.88 1.78-1.88-1.78a.72.72 0 0 0-.95 0l-.94.89a.61.61 0 0 0 0 .89l1.86 1.78-1.89 1.78a.61.61 0 0 0 0 .89l.94.88a.7.7 0 0 0 .95 0l1.88-1.77 1.91 1.77a.68.68 0 0 0 .94 0l.94-.88a.61.61 0 0 0 0-.89zM192.5 355.8l-3.67 3.46h-4.21a1 1 0 0 0-1 .94v5.6a1 1 0 0 0 1 .94h4.21l3.67 3.46a1 1 0 0 0 1.69-.66v-13.08a1 1 0 0 0-1.69-.66zm9.6-2a1 1 0 0 0-1.38.27.91.91 0 0 0 .29 1.3 8.84 8.84 0 0 1 0 15.24.91.91 0 0 0-.29 1.3 1 1 0 0 0 1.38.27 10.65 10.65 0 0 0 0-18.38zm1.31 9.19a7.12 7.12 0 0 0-3.54-6.09 1 1 0 0 0-1.37.3.91.91 0 0 0 .31 1.29 5.17 5.17 0 0 1 0 9 .92.92 0 0 0-.31 1.3 1 1 0 0 0 1.37.29 7.09 7.09 0 0 0 3.54-6.08zm-5.85-3a1 1 0 0 0-1.34.36.9.9 0 0 0 .39 1.27 1.51 1.51 0 0 1 0 2.72.9.9 0 0 0-.39 1.27 1 1 0 0 0 1.34.36 3.31 3.31 0 0 0 0-6zM134 355.8l-3.67 3.46h-4.21a1 1 0 0 0-1 .94v5.6a1 1 0 0 0 1 .94h4.21l3.67 3.46a1 1 0 0 0 1.69-.66v-13.08a1 1 0 0 0-1.69-.66zm5 4.2a1 1 0 0 0-1.34.36.91.91 0 0 0 .38 1.27 1.5 1.5 0 0 1 0 2.72.9.9 0 0 0-.39 1.27 1 1 0 0 0 1.35.38 3.31 3.31 0 0 0 0-6zM139.19 321.8h-3.45a1.68 1.68 0 0 1-1.72-1.63v-11.93a1.68 1.68 0 0 1 1.72-1.63h3.45a1.68 1.68 0 0 1 1.72 1.63v11.93a1.68 1.68 0 0 1-1.72 1.63zm10.91-1.63v-11.93a1.68 1.68 0 0 0-1.72-1.63h-3.45a1.68 1.68 0 0 0-1.72 1.63v11.93a1.68 1.68 0 0 0 1.72 1.63h3.45a1.68 1.68 0 0 0 1.72-1.63zM131.14 312.6l-12.64-7.06a1.72 1.72 0 0 0-2.6 1.4v14.11a1.72 1.72 0 0 0 2.6 1.4l12.64-7.05a1.58 1.58 0 0 0 0-2.8zM207.58 313l-7.91-6.23a1.33 1.33 0 0 0-2.17 1v12.46a1.33 1.33 0 0 0 2.17 1l7.91-6.23a1.21 1.21 0 0 0 0-1.92zM197 313l-7.92-6.23a1.33 1.33 0 0 0-2.17 1v12.46a1.33 1.33 0 0 0 2.17 1L197 315a1.21 1.21 0 0 0 0-1.92zM58.42 315l7.91 6.23a1.33 1.33 0 0 0 2.17-1v-12.46a1.33 1.33 0 0 0-2.17-1L58.42 313a1.21 1.21 0 0 0 0 2zM69 315l7.92 6.23a1.33 1.33 0 0 0 2.17-1v-12.46a1.33 1.33 0 0 0-2.17-1L69 313a1.21 1.21 0 0 0 0 2z"/><path class="h" d="M143 102l-10-11M123 102l10-11M143 202l-10 11M123 202l10 11M183 162l11-10M183 142l11 10M83 162l-11-10M83 142l-11 10"/><path class="d" d="M80.8 39.25h16.29a.91.91 0 0 0 .91-.91v-.68a.91.91 0 0 0-.91-.91H80.8v-6.67a.44.44 0 0 0-.75-.31l-7.92 7.92a.44.44 0 0 0 0 .62l7.92 7.92a.44.44 0 0 0 .75-.31v-6.67z"/></svg>