<svg xmlns="http://www.w3.org/2000/svg" viewBox="0 0 266 400"><defs><style>.a{fill:#1a1a1a;}.b{fill:#662d91;}.c,.e,.f,.h{fill:none;}.c{stroke:#000;opacity:0.25;}.c,.e,.f,.g,.h{stroke-miterlimit:10;}.d,.g{fill:#fff;}.e,.f,.g,.h{stroke:#fff;}.e,.h{stroke-linecap:round;}.e,.f,.g{stroke-width:2.5px;}.h{stroke-width:3px;}</style></defs><title>Artboard 1</title><rect class="a" x="43" y="17" width="84" height="42" rx="12" ry="12"/><rect class="a" x="139" y="17" width="84" height="42" rx="12" ry="12"/><rect class="a" x="43" y="244" width="84" height="42" rx="12" ry="12"/><rect class="a" x="139" y="244" width="84" height="42" rx="12" ry="12"/><path class="b" d="M190.63,123H171a9.45,9.45,0,0,1-9.45-9.45V93.88A16.92,16.92,0,0,0,144.63,77H121.38A16.92,16.92,0,0,0,104.5,93.88v19.67A9.45,9.45,0,0,1,95.05,123H75.38A16.92,16.92,0,0,0,58.5,139.88v23.25A16.92,16.92,0,0,0,75.38,180H95.05a9.45,9.45,0,0,1,9.45,9.45v19.68A16.92,16.92,0,0,0,121.38,226h23.25a16.92,16.92,0,0,0,16.87-16.87V189.45A9.45,9.45,0,0,1,171,180h19.68a16.92,16.92,0,0,0,16.87-16.87V139.88A16.92,16.92,0,0,0,190.63,123Z"/><circle class="c" cx="133" cy="152" r="25"/><rect class="a" x="43" y="293" width="55" height="42" rx="12" ry="12"/><rect class="a" x="168" y="293" width="55" height="42" rx="12" ry="12"/><rect class="a" x="105.5" y="293" width="55" height="42" rx="12" ry="12"/><rect class="a" x="43" y="342" width="55" height="42" rx="12" ry="12"/><rect class="a" x="168" y="342" width="55" height="42" rx="12" ry="12"/><rect class="a" x="105.5" y="342" width="55" height="42" rx="12" ry="12"/><path class="d" d="M132.75,151.63a7,7,0,0,1-1.58,4.91,6.87,6.87,0,0,1-9.07,0,7,7,0,0,1-1.58-4.92,6.92,6.92,0,0,1,1.58-4.9,5.94,5.94,0,0,1,4.55-1.7,5.82,5.82,0,0,1,4.53,1.71A7,7,0,0,1,132.75,151.63Zm-9.37,0a5.43,5.43,0,0,0,.81,3.25,2.89,2.89,0,0,0,2.45,1.09q3.26,0,3.26-4.34t-3.25-4.34a2.88,2.88,0,0,0-2.45,1.1A5.34,5.34,0,0,0,123.38,151.63Z"/><path class="d" d="M144.53,158.08h-3.1l-3.36-5.42-1.15.83v4.59h-2.73V145.23h2.73v5.88l1.07-1.52,3.48-4.36h3L140,150.91Z"/><path class="e" d="M190,37.7l-8.68-7.8a.4.4,0,0,0-.54,0l-8.68,7.8"/><path class="f" d="M182.91,46.2h4.5a.41.41,0,0,0,.41-.41V35.86"/><path class="f" d="M174.18,35.86v9.93a.41.41,0,0,0,.41.41h4.5"/><rect class="g" x="179.85" y="40.36" width="2.3" height="5.84"/><path class="d" d="M74.43,265H70.6a1.11,1.11,0,0,0-.79,1.9l5.46,5.46a1.11,1.11,0,0,0,1.58,0l5.46-5.46a1.11,1.11,0,0,0-.79-1.9H77.69a9.79,9.79,0,1,1,10.74,9.73,1.11,1.11,0,0,0-1,1.11v1A1.13,1.13,0,0,0,88.73,278a13,13,0,1,0-14.3-13Z"/><path class="d" d="M191.6,268.38a.67.67,0,0,1,.42.74,7.76,7.76,0,0,1-2,3.33.69.69,0,0,1-.84,0l-6.75-4.89.89,8.27a.63.63,0,0,1-.42.72,7.52,7.52,0,0,1-3.92,0,.63.63,0,0,1-.42-.72l.89-8.27-6.71,4.89a.72.72,0,0,1-.86,0,7.5,7.5,0,0,1-2-3.33.69.69,0,0,1,.43-.74l7.64-3.38-7.64-3.35a.75.75,0,0,1-.43-.77,4.45,4.45,0,0,1,.75-1.78,4.53,4.53,0,0,1,1.2-1.52.72.72,0,0,1,.86,0l6.71,4.86-.89-8.23a.66.66,0,0,1,.42-.76,7.52,7.52,0,0,1,3.92,0,.66.66,0,0,1,.42.76l-.89,8.23,6.75-4.86a.69.69,0,0,1,.84,0,4.81,4.81,0,0,1,1.18,1.55,4.71,4.71,0,0,1,.77,1.75.73.73,0,0,1-.42.77L184,265Z"/><path class="d" d="M68.82,355.8l-3.67,3.46H60.94a1,1,0,0,0-1,.94v5.6a1,1,0,0,0,1,.94h4.21l3.67,3.46a1,1,0,0,0,1.69-.66V356.46A1,1,0,0,0,68.82,355.8ZM79,363l1.88-1.78a.61.61,0,0,0,0-.89l-.94-.89a.7.7,0,0,0-.94,0l-1.88,1.78-1.88-1.78a.72.72,0,0,0-.95,0l-.94.89a.61.61,0,0,0,0,.89L75.21,363l-1.89,1.78a.61.61,0,0,0,0,.89l.94.88a.7.7,0,0,0,.95,0l1.88-1.77L79,366.55a.68.68,0,0,0,.94,0l.94-.88a.61.61,0,0,0,0-.89Z"/><path class="d" d="M192.5,355.8l-3.67,3.46h-4.21a1,1,0,0,0-1,.94v5.6a1,1,0,0,0,1,.94h4.21l3.67,3.46a1,1,0,0,0,1.69-.66V356.46A1,1,0,0,0,192.5,355.8Zm9.6-2a1,1,0,0,0-1.38.27.91.91,0,0,0,.29,1.3,8.84,8.84,0,0,1,0,15.24.91.91,0,0,0-.29,1.3,1,1,0,0,0,1.38.27,10.65,10.65,0,0,0,0-18.38Zm1.31,9.19a7.12,7.12,0,0,0-3.54-6.09,1,1,0,0,0-1.37.3.91.91,0,0,0,.31,1.29,5.17,5.17,0,0,1,0,9,.92.92,0,0,0-.31,1.3,1,1,0,0,0,1.37.29A7.09,7.09,0,0,0,203.41,363Zm-5.85-3a1,1,0,0,0-1.34.36.9.9,0,0,0,.39,1.27,1.51,1.51,0,0,1,0,2.72.9.9,0,0,0-.39,1.27,1,1,0,0,0,1.34.36,3.31,3.31,0,0,0,0-6Z"/><path class="d" d="M134,355.8l-3.67,3.46h-4.21a1,1,0,0,0-1,.94v5.6a1,1,0,0,0,1,.94h4.21L134,370.2a1,1,0,0,0,1.69-.66V356.46A1,1,0,0,0,134,355.8ZM139,360a1,1,0,0,0-1.34.36.91.91,0,0,0,.38,1.27,1.5,1.5,0,0,1,0,2.72.9.9,0,0,0-.39,1.27A1,1,0,0,0,139,366a3.31,3.31,0,0,0,0-6Z"/><path class="d" d="M139.19,321.8h-3.45a1.68,1.68,0,0,1-1.72-1.63V308.24a1.68,1.68,0,0,1,1.72-1.63h3.45a1.68,1.68,0,0,1,1.72,1.63v11.93A1.68,1.68,0,0,1,139.19,321.8Zm10.91-1.63V308.24a1.68,1.68,0,0,0-1.72-1.63h-3.45a1.68,1.68,0,0,0-1.72,1.63v11.93a1.68,1.68,0,0,0,1.72,1.63h3.45A1.68,1.68,0,0,0,150.1,320.17Z"/><path class="d" d="M131.14,312.6l-12.64-7.06a1.72,1.72,0,0,0-2.6,1.4v14.11a1.72,1.72,0,0,0,2.6,1.4l12.64-7.05a1.58,1.58,0,0,0,0-2.8Z"/><path class="d" d="M207.58,313l-7.91-6.23a1.33,1.33,0,0,0-2.17,1v12.46a1.33,1.33,0,0,0,2.17,1l7.91-6.23a1.21,1.21,0,0,0,0-1.92ZM197,313l-7.92-6.23a1.33,1.33,0,0,0-2.17,1v12.46a1.33,1.33,0,0,0,2.17,1L197,315a1.21,1.21,0,0,0,0-1.92Z"/><path class="d" d="M58.42,315l7.91,6.23a1.33,1.33,0,0,0,2.17-1V307.77a1.33,1.33,0,0,0-2.17-1L58.42,313A1.21,1.21,0,0,0,58.42,315ZM69,315l7.92,6.23a1.33,1.33,0,0,0,2.17-1V307.77a1.33,1.33,0,0,0-2.17-1L69,313A1.21,1.21,0,0,0,69,315Z"/><line class="h" x1="143" y1="102" x2="133" y2="91"/><line class="h" x1="123" y1="102" x2="133" y2="91"/><line class="h" x1="143" y1="202" x2="133" y2="213"/><line class="h" x1="123" y1="202" x2="133" y2="213"/><line class="h" x1="183" y1="162" x2="194" y2="152"/><line class="h" x1="183" y1="142" x2="194" y2="152"/><line class="h" x1="83" y1="162" x2="72" y2="152"/><line class="h" x1="83" y1="142" x2="72" y2="152"/><path class="d" d="M80.8,39.25H97.09a.91.91,0,0,0,.91-.91v-.68a.91.91,0,0,0-.91-.91H80.8V30.08a.44.44,0,0,0-.75-.31l-7.92,7.92a.44.44,0,0,0,0,.62l7.92,7.92a.44.44,0,0,0,.75-.31V39.25Z"/></svg>